<svg width="72" height="68" fill="none" xmlns="http://www.w3.org/2000/svg"><path fill-rule="evenodd" clip-rule="evenodd" d="M8.168 55.569H5.391v1.11H7.94v.931H5.391v1.34H8.3v.93H4.313v-5.242h3.855v.93zm3.527 2.892l.523.49c-.18.1-.383.151-.588.147-.605 0-1.438-.36-1.438-1.83 0-1.47.833-1.829 1.438-1.829.604 0 1.42.36 1.42 1.83.014.39-.07.777-.244 1.127l-.555-.523-.556.588zm2.469 1.208l-.572-.539a2.874 2.874 0 00.555-1.862 2.45 2.45 0 00-2.515-2.76 2.45 2.45 0 00-2.532 2.76 2.45 2.45 0 002.532 2.76c.47-.004.93-.128 1.34-.359l.62.604.572-.604zm5.143-1.618c0 1.389-.833 1.977-2.156 1.977a2.206 2.206 0 01-1.633-.637 1.813 1.813 0 01-.408-1.274v-3.48h1.11v3.414a.915.915 0 00.931 1.046c.752 0 1.062-.36 1.062-.997v-3.462h1.127v3.413h-.033zm2.925-2.221l.653 2.075h-1.323l.67-2.074zm-.999 2.973h1.944l.327 1.078h1.192l-1.83-5.243H21.61l-1.878 5.243h1.16l.342-1.078zm5.458.131h2.597v.947H25.58v-5.243h1.111v4.296zm6.762-1.405v2.352h-1.095v-5.243h1.095v1.992h2.041v-1.992h1.095v5.243h-1.095v-2.352h-2.041zm5.225-.262c0-1.47.833-1.83 1.421-1.83.588 0 1.421.36 1.421 1.83 0 1.47-.833 1.83-1.421 1.83-.588 0-1.421-.36-1.421-1.83zm-1.093 0a2.532 2.532 0 105.03 0 2.532 2.532 0 10-5.03 0zm10.271.784c0 1.389-.833 1.977-2.156 1.977-.61.022-1.2-.208-1.634-.637a1.813 1.813 0 01-.408-1.274v-3.48h1.11v3.414a.915.915 0 00.932 1.046c.751 0 1.062-.36 1.062-.997v-3.462h1.127v3.413h-.033zm1.994.229c0 .278.163.833 1.11.833.523 0 1.111-.114 1.111-.67 0-.555-.408-.522-.947-.653l-.49-.13c-.85-.196-1.633-.392-1.633-1.536 0-.588.31-1.633 2.009-1.633 1.699 0 2.041 1.045 2.058 1.633h-1.062c0-.245-.114-.8-1.062-.8-.424 0-.914.163-.914.637s.326.49.555.539l1.274.31c.719.18 1.372.474 1.372 1.421 0 1.634-1.633 1.634-2.074 1.634-1.911 0-2.238-1.111-2.238-1.748l.931.163zm5.26 1.6h-1.094v-5.242h1.094v5.243zm4.377-5.242h1.03v5.243h-1.095l-2.14-3.74h-.032v3.74h-1.013v-5.243h1.16l2.074 3.659h.017v-3.66zm4.688 2.416h2.19v2.826h-.736l-.098-.653c-.376.523-.99.823-1.633.8a2.45 2.45 0 01-2.418-2.744 2.516 2.516 0 012.565-2.777 2.074 2.074 0 012.303 1.764h-1.013a1.16 1.16 0 00-1.143-.866c-.784 0-1.52.54-1.52 1.895 0 1.356.785 1.797 1.536 1.797a1.307 1.307 0 001.274-1.16h-1.225v-.882h-.082zm-59 8.186c0-1.47.833-1.846 1.421-1.846.588 0 1.421.376 1.421 1.846 0 1.47-.833 1.829-1.486 1.829s-1.421-.36-1.421-1.83h.065zm-1.091-.002a2.45 2.45 0 002.45 2.76 2.777 2.777 0 000-5.52 2.434 2.434 0 00-2.45 2.76zm8.036-.178v-1.552h.947c.686 0 .964.228.964.735 0 .228 0 .816-.817.816H12.12zm0 .897h1.258c.902 0 1.633-.731 1.633-1.633a1.535 1.535 0 00-1.633-1.634h-2.352v5.243h1.094v-1.976zm5.85-.897v-1.552h.865c.686 0 .964.228.964.735 0 .228 0 .816-.817.816h-1.013zm-.005.897h1.258c.902 0 1.633-.731 1.633-1.633a1.535 1.535 0 00-1.633-1.634H16.92v5.243h1.045v-1.976zm5.72-.72c0-1.47.833-1.846 1.438-1.846.604 0 1.42.376 1.42 1.846 0 1.47-.832 1.83-1.42 1.83s-1.438-.36-1.438-1.83zm-1.095 0a2.532 2.532 0 102.532-2.76 2.45 2.45 0 00-2.532 2.76zm8.019-.324v-1.405h1.372a.67.67 0 01.767.703c0 .506-.277.702-.849.702h-1.29zm-1.077 2.94h1.078V65.81h1.127c.817 0 .866.277.866.98-.02.358.018.716.114 1.061h1.209v-.13c-.229-.098-.229-.278-.229-1.046 0-.767-.229-1.143-.67-1.339.517-.187.85-.692.817-1.241a1.486 1.486 0 00-1.633-1.487h-2.68v5.243zm8.395-.001h-1.095v-4.313h-1.584v-.93h4.263v.93h-1.584v4.313zm7.465-1.83c0 1.372-.833 1.977-2.156 1.977-.609.02-1.2-.21-1.633-.637a1.895 1.895 0 01-.409-1.274v-3.48h1.111v3.398a.931.931 0 00.947 1.062c.752 0 1.046-.36 1.046-.997v-3.463h1.127v3.414h-.033zm5.291-3.414h1.029v5.244h-1.095l-2.14-3.74h-.016v3.74h-1.029v-5.244h1.16l2.09 3.66v-3.66zm4.117 5.244h-1.094v-5.244h1.095v5.244zm4.278 0h-1.094v-4.313H56.4v-.93h4.263v.93h-1.585v4.313zm5.735 0H63.72v-1.977l-1.813-3.267h1.29l1.095 2.287 1.029-2.287h1.241l-1.748 3.283v1.96zM35.314 0L0 17.396v8.167h3.953v24.5h62.461v-24.5h4.737v-8.167L35.314 0zm23.49 42.698H11.597v-22.41l23.717-12.12 23.488 12.12v22.41z" fill="#767676"/><path fill-rule="evenodd" clip-rule="evenodd" d="M46.111 28.192H24.256v-7.905h21.855v7.905zm0 11.336H24.256v-7.906h21.855v7.906z" fill="#767676"/></svg>