<svg width="154" height="64" fill="none" xmlns="http://www.w3.org/2000/svg"><g clip-path="url(#clip0)" fill="#767676"><path d="M23.837 48.457h-.101l-13.318-23.62H.15v38.35h9.404V39.263h.102l13.368 23.924h10.268v-38.35h-9.455v23.62zM56.826 32.61c4.169 0 7.218 2.031 7.727 5.892h10.013c-.254-9.245-9.25-14.527-17.536-14.527-11.59 0-19.163 8.889-19.163 19.962 0 11.123 7.523 19.961 19.163 19.961 9.708 0 16.977-5.79 17.536-15.695H64.553c-.356 4.42-3.05 7.111-7.727 7.111-6.455 0-8.946-5.689-8.946-11.377 0-5.639 2.491-11.328 8.946-11.328zm45.24 15.288c0 4.927-1.83 7.467-6.71 7.467s-6.71-2.54-6.71-7.467v-23.06H78.633V47.34c0 11.123 5.083 16.66 16.723 16.66 11.589 0 16.723-5.537 16.723-16.66V24.838h-10.013v23.06zm36.75-23.06H128.65l-14.334 38.35h10.268l2.439-6.858h13.369l2.389 6.857h10.369l-14.334-38.35zm-9.556 24.025l4.371-13.41h.102l4.27 13.41h-8.743zM2.184 8.33h5.083V6.603H2.184V1.676H7.52V0H.15v15.39h2.033V8.33zm9.759 7.315c1.17 0 2.084-.305 2.745-.965.356-.356.66-.711.813-1.168a3.47 3.47 0 00.305-1.473h-1.83c-.101.66-.305 1.168-.66 1.523-.356.356-.814.508-1.373.508-.762 0-1.27-.254-1.627-.71-.355-.458-.508-1.22-.508-2.287v-.61h5.947V8.789c0-1.524-.305-2.59-.915-3.302-.61-.711-1.575-1.067-2.897-1.067-1.372 0-2.389.458-3.05 1.321-.66.864-.966 2.286-.966 4.216 0 2.032.305 3.505.966 4.368.661.864 1.627 1.32 3.05 1.32zM9.961 7.569c.101-.407.254-.762.406-1.067.356-.559.915-.813 1.627-.813.66 0 1.118.203 1.474.66.356.407.508 1.016.508 1.83v.913H9.808c0-.61.051-1.117.153-1.523zm10.623 8.025c.508 0 1.017-.102 1.423-.305.407-.203.814-.559 1.119-.965l.101 1.066h1.83l-.101-.71V0h-1.83v5.841c-.305-.508-.661-.863-1.119-1.117-.406-.254-.915-.356-1.474-.356-1.22 0-2.084.457-2.643 1.422-.56.966-.864 2.388-.864 4.369 0 1.88.305 3.25.864 4.114.61.864 1.474 1.32 2.694 1.32zm-1.118-8.686c.356-.66.864-.965 1.525-.965.762 0 1.321.305 1.626.965.356.66.509 1.676.509 3.15 0 .761-.051 1.37-.102 1.93-.05.558-.203.964-.356 1.27-.356.66-.864.964-1.576.964-.762 0-1.321-.304-1.626-.914-.305-.61-.509-1.727-.509-3.302 0-1.422.153-2.438.509-3.098zM30.954 4.42c-1.373 0-2.39.457-3.05 1.32-.661.864-.966 2.286-.966 4.216 0 2.032.305 3.505.966 4.368.61.864 1.626 1.32 3.05 1.32 1.169 0 2.084-.304 2.745-.964.355-.356.66-.711.813-1.168a3.47 3.47 0 00.305-1.473h-1.83c-.102.66-.305 1.168-.661 1.523-.356.356-.813.508-1.372.508-.763 0-1.271-.254-1.627-.71-.356-.458-.508-1.22-.508-2.287v-.61h5.947V8.789c0-1.524-.305-2.59-.915-3.302-.61-.711-1.576-1.067-2.897-1.067zm2.033 4.622h-4.168c0-.56.05-1.067.152-1.524a5.2 5.2 0 01.407-1.067c.356-.559.915-.813 1.626-.813.661 0 1.119.204 1.474.66.356.407.509 1.017.509 1.83v.914zm5.439 6.348v-6.5c0-.914.203-1.626.61-2.032.407-.406 1.067-.61 1.982-.61h.458V4.369h-.356c-.66 0-1.27.153-1.728.457-.458.305-.763.711-.966 1.22l-.153-1.423h-1.83l.051.559c0 .203.051.406.051.66.051.254.051.457.051.559v8.94h1.83v.05zm8.489-6.908c-1.576 0-2.796.305-3.559.915-.813.61-1.169 1.574-1.169 2.793 0 .965.305 1.778.865 2.388.559.61 1.321.914 2.236.914.508 0 1.017-.102 1.525-.356a4.19 4.19 0 001.27-1.066l.102 1.32h1.78c-.051-.406-.102-.61-.102-.71-.051-.255-.051-.458-.051-.712v-6.4c0-1.067-.305-1.88-.864-2.336-.61-.508-1.474-.762-2.745-.762-1.22 0-2.186.254-2.847.71-.66.509-.965 1.17-.965 2.134v.203h1.982v-.101c0-.559.153-.915.509-1.22.304-.253.813-.406 1.474-.406.61 0 1.016.153 1.27.508.255.305.356.915.356 1.727v.508h-1.067v-.05zm1.016 2.083c0 1.067-.203 1.88-.61 2.438-.406.559-.965.864-1.677.864-.508 0-.915-.153-1.22-.508-.305-.356-.457-.813-.457-1.321 0-.813.305-1.422.864-1.727.559-.356 1.626-.508 3.1-.508v.762zM53.726 0h-1.83v15.39h1.83V0zm3.507 0h-1.83v15.39h1.83V0zm3.05 19.404h1.78l4.93-14.73H65.01l-2.541 8.431-2.542-8.432h-2.185l3.71 10.667-1.169 4.064zM73.397 0h-2.084v15.39h2.084V0zm7.727 6.4c.254.406.406 1.117.406 2.133v6.857h1.83V7.263c0-.914-.254-1.574-.762-2.133-.509-.508-1.22-.762-2.084-.762-.61 0-1.119.102-1.576.356-.458.254-.864.61-1.27 1.117l-.103-1.219h-1.88c.05.203.05.406.05.559v.406l.051.762v9.041h1.83V9.194c0-1.169.153-2.032.509-2.59.355-.56.864-.814 1.575-.814.661 0 1.119.204 1.424.61zm8.59 7.315c-.305.254-.762.406-1.27.406-.56 0-1.017-.152-1.322-.508-.305-.355-.509-.863-.509-1.473h-1.982c0 1.168.305 2.032.966 2.641.61.61 1.576.915 2.796.915 1.169 0 2.084-.305 2.744-.915.661-.61 1.068-1.371 1.068-2.387 0-.66-.204-1.219-.56-1.676-.355-.457-1.067-.914-2.083-1.422l-1.78-.864a3.16 3.16 0 01-.864-.61c-.203-.203-.254-.457-.254-.71 0-.204.051-.356.102-.508.05-.153.203-.305.356-.407a1.813 1.813 0 011.169-.406c.559 0 .966.152 1.27.457.306.305.458.711.458 1.22h1.982v-.204c0-.864-.305-1.575-.965-2.083-.61-.508-1.474-.762-2.593-.762-1.118 0-1.982.305-2.694.864-.66.559-1.016 1.32-1.016 2.235 0 .559.152 1.016.457 1.422.305.406.763.762 1.474 1.117l1.932 1.016c.559.305.966.56 1.169.813.254.254.356.559.356.864.101.355-.102.71-.407.965zm6.608 1.93c.61 0 1.118-.102 1.576-.356.457-.254.864-.61 1.27-1.168l.102 1.27h1.83l-.051-.915-.05-.761V4.673h-1.83v6.197c0 1.168-.153 2.032-.509 2.54-.355.508-.864.813-1.575.813-.661 0-1.119-.204-1.373-.56-.254-.405-.407-1.117-.407-2.133V4.673h-1.88v8.076c0 .864.254 1.575.762 2.083a3.09 3.09 0 002.135.813zm6.608-9.753c.05.254.05.457.05.559v8.94h1.83V8.888c0-.914.204-1.626.61-2.032.407-.406 1.068-.61 1.983-.61h.457V4.369h-.356c-.66 0-1.27.153-1.728.457-.457.305-.762.711-.966 1.22l-.152-1.423h-1.83l.051.559c0 .203.051.457.051.711zm13.317 7.619c.204-.457.305-.914.305-1.472h-1.829c-.102.66-.305 1.168-.661 1.523-.356.356-.814.508-1.373.508-.762 0-1.27-.254-1.626-.71-.356-.458-.509-1.22-.509-2.287v-.61h5.998V8.789c0-1.524-.305-2.59-.914-3.302-.61-.711-1.576-1.067-2.898-1.067-1.372 0-2.389.458-3.05 1.321-.66.864-.965 2.286-.965 4.216 0 2.032.305 3.505.965 4.368.61.864 1.627 1.32 3.05 1.32 1.169 0 2.084-.304 2.745-.964.305-.356.61-.762.762-1.168zm-5.54-5.942c.102-.407.254-.762.407-1.067.355-.559.915-.813 1.626-.813.661 0 1.118.203 1.474.66.356.407.509 1.016.509 1.83v.913h-4.169c.051-.61.102-1.117.153-1.523zm10.674 8.025c.508 0 1.017-.102 1.423-.305.407-.203.814-.559 1.119-.965l.101 1.066h1.83l-.101-.71V0h-1.83v5.841c-.305-.508-.661-.863-1.119-1.117-.406-.254-.915-.356-1.474-.356-1.22 0-2.084.457-2.643 1.422-.559.966-.864 2.388-.864 4.369 0 1.88.305 3.25.864 4.114.559.864 1.474 1.32 2.694 1.32zm-1.169-8.686c.356-.66.864-.965 1.525-.965.762 0 1.321.305 1.626.965.356.66.509 1.676.509 3.15 0 .761-.051 1.37-.102 1.93-.102.558-.203.964-.356 1.27-.356.66-.864.964-1.575.964-.763 0-1.322-.304-1.678-.914-.305-.61-.508-1.727-.508-3.302.051-1.422.254-2.438.559-3.098zm13.216 7.467c.254.406.559.761.966.965.407.203.915.304 1.474.304 1.22 0 2.135-.457 2.694-1.371.559-.914.864-2.286.864-4.165 0-.965-.051-1.829-.203-2.54-.153-.71-.356-1.32-.661-1.778-.559-.914-1.474-1.422-2.643-1.422-.559 0-1.068.102-1.474.356a3.7 3.7 0 00-1.119 1.066V0h-1.829v13.46l-.051 1.067-.051.813h1.728l.305-.965zm.458-7.467c.355-.66.915-.965 1.677-.965.712 0 1.22.305 1.525.965.305.66.457 1.676.457 3.098 0 1.575-.152 2.692-.508 3.302-.305.61-.864.914-1.627.914-.711 0-1.27-.355-1.575-1.016-.305-.66-.509-1.777-.509-3.301.051-1.372.204-2.388.56-2.997zm7.929 12.496h1.83l4.931-14.73h-1.983l-2.541 8.431-2.542-8.432h-2.185l3.71 10.667-1.22 4.064z"/></g><defs><clipPath id="clip0"><path fill="#fff" transform="translate(.15)" d="M0 0h153v64H0z"/></clipPath></defs></svg>