<svg width="72" height="66" fill="none" xmlns="http://www.w3.org/2000/svg"><g clip-path="url(#clip0)" fill="#767676"><path d="M28.169 65.96c.301-1.394.582-2.808.883-4.201.181-.869.382-1.737.563-2.626.02-.12.06-.161.18-.161 1.346 0 2.692 0 4.038.02.22 0 .442.04.642.1.563.162.804.587.724 1.314-.04.343-.121.686-.262 1.03-.2.505-.562.807-1.084.929-.04 0-.08.02-.12.02 0 0 0 .02-.02.04.12.02.26.04.38.08.322.102.523.324.523.667.04.707-.12 1.353-.502 1.96-.362.585-.944.747-1.587.807-.08 0-.18-.06-.24.04h-.202c-.06-.08-.16-.04-.24-.04-1.226.02-2.451.02-3.676.02zm3.414-2.868c-.24-.02-.482 0-.723-.02-.16 0-.24.02-.261.201-.04.323-.14.667-.22.99-.041.141 0 .162.14.162.381 0 .763.02 1.145 0 .783-.04.984-.202 1.084-.869.04-.303-.08-.464-.381-.485-.262.02-.523.02-.784.02zm.221-1.333s0-.02 0 0c.261-.02.522 0 .804-.02.24-.02.421-.142.502-.384.04-.121.06-.222.1-.343.08-.324-.04-.465-.382-.485h-1.486c-.1 0-.16.04-.18.141-.06.303-.121.606-.201.93-.04.14.02.18.16.18.221-.04.462-.02.683-.02zm31.734 4.201c.181-.93.382-1.838.583-2.767.281-1.353.582-2.707.863-4.06.02-.08 0-.161.12-.161h1.788c-.14.626-.26 1.232-.381 1.837-.02.061-.02.122-.04.162-.04.202-.181.444-.08.586.08.1.381.02.582.04h1.587c.12 0 .18-.02.22-.161.141-.748.322-1.475.462-2.222.04-.182.1-.242.282-.242.542.02 1.084 0 1.647 0v.141c-.02.02-.04.06-.04.08-.382 1.819-.784 3.636-1.145 5.454-.1.444-.241.888-.261 1.353h-.1c-.061-.081-.141-.04-.222-.04h-1.567c0-.061 0-.122.02-.182a94.8 94.8 0 01.503-2.303c.04-.161.02-.222-.161-.222H66.21c-.141 0-.201.04-.241.182-.161.848-.362 1.676-.543 2.524h-1.888zm-5.121.04c-.1-.08-.221-.06-.342-.08-.763-.203-1.125-.647-1.145-1.455-.02-.586.14-1.151.261-1.717.141-.605.221-1.211.422-1.817.362-1.172 1.185-1.818 2.37-1.96.844-.1 1.687-.1 2.551 0 .663.082 1.044.364 1.165.89.12.504.02 1.03-.08 1.534-.02.06-.04.101-.121.101H61.67c.12-.747-.02-.929-.743-.929-.24 0-.502 0-.743.04-.341.081-.582.283-.683.607a17.059 17.059 0 00-.522 2.443c-.06.465.12.646.582.707.282.04.543.04.824 0 .522-.06.743-.242.843-.767.06-.263.161-.324.402-.303.482.02.944.02 1.426 0 .14 0 .18.04.14.181-.06.243-.12.465-.18.707-.261.99-.924 1.535-1.908 1.757-.04.02-.1 0-.12.06h-2.571z"/><path d="M28.169 65.96h3.695c.08 0 .181-.04.241.039H28.15c0-.02.02-.04.02-.04zm24.282.04c0-.02 0-.04.02-.06h3.174v.04c-1.085.02-2.15.02-3.194.02zm-9.299-.04V66h-1.928v-.06c.643.02 1.285.02 1.928.02zm3.173.04c0-.02 0-.04.02-.06h1.909c0 .02 0 .04.02.06h-1.949zm4.218-.04c0 .02 0 .04.02.06h-1.888v-.06h1.868zm14.863 0c0 .02 0 .04.02.06h-1.888v-.06h1.868zm-28.581 0V66h-1.827c-.02-.02-.02-.02 0-.04h1.828zm2.23.04s0-.02-.02-.02v-.02h1.848V66h-1.828zm28.761-.001v-.04h1.567c.08 0 .16-.04.22.04h-1.787zM52.411 47.823c-.904 0-1.727-.04-2.53-.242-1.647-.424-2.29-1.434-2.13-2.989.181-1.737.583-3.453 1.065-5.15.522-1.818 1.788-2.888 3.635-3.231 1.607-.283 3.214-.303 4.8.02.262.06.523.141.764.262.904.425 1.346 1.172 1.406 2.161.04.687-.08 1.374-.241 2.04-.261 1.151-.442 2.343-.763 3.494-.563 2.04-1.928 3.17-3.977 3.474a10.27 10.27 0 01-2.029.161zm.523-2.706h.401c1.265-.02 1.748-.384 2.049-1.615.18-.707.321-1.414.462-2.121.1-.545.28-1.09.26-1.676-.02-.526-.22-.808-.742-.889-.683-.121-1.386-.101-2.09-.04-.702.06-1.144.464-1.365 1.13-.04.102-.06.203-.1.303-.221.788-.342 1.596-.523 2.384-.1.464-.22.949-.22 1.433-.02.667.28.97.923 1.05.302.041.623.041.945.041zm6.126 2.626c.803-3.817 1.606-7.614 2.41-11.41.04-.142.08-.203.24-.203h5.905c.563 0 1.125.081 1.647.303.864.344 1.266 1.03 1.286 1.919a9.696 9.696 0 01-1.065 4.665c-.542 1.05-1.486 1.535-2.63 1.676-1.266.162-2.531.081-3.797.081-.24 0-.321.101-.361.303-.161.828-.362 1.676-.523 2.504-.02.101-.02.162-.16.162h-2.953zm6.306-8.906h-.823c-.503 0-.503 0-.603.464l-.542 2.565c-.02.06-.1.202.1.182.844-.02 1.687.04 2.53-.06.382-.041.704-.203.864-.587a6.006 6.006 0 00.402-1.777c.04-.505-.18-.727-.663-.787-.462-.04-.903.02-1.265 0zM30.057 43.32c-.181.869-.322 1.737-.764 2.484-.662 1.131-1.687 1.737-2.952 1.899a15.849 15.849 0 01-4.479-.04c-.663-.102-1.285-.324-1.727-.91-.322-.424-.442-.929-.462-1.454-.04-.807.12-1.595.28-2.363.262-1.15.443-2.302.784-3.433.342-1.11.884-2.06 1.908-2.686.743-.444 1.547-.626 2.39-.727 1.065-.121 2.15-.1 3.214-.04.382.02.743.06 1.125.161 1.024.263 1.486.808 1.566 1.858.06.707-.08 1.414-.22 2.1-.02.102-.08.122-.181.122h-2.873c-.16 0-.16-.06-.14-.182.04-.141.06-.263.06-.404.02-.565-.16-.808-.703-.909a4.87 4.87 0 00-1.948.04c-.502.122-.823.445-1.004.91-.221.565-.322 1.15-.442 1.756-.16.728-.342 1.455-.442 2.202-.02.1-.02.202-.02.303-.02.626.2.929.803 1.03a4.948 4.948 0 001.888-.02c.462-.081.764-.364.944-.808l.181-.546c.08-.343.08-.343.422-.343h2.792zm19.221-9.31l-1.989-3.453c-.883-1.556-1.787-3.09-2.67-4.646-1.507-2.625-3.034-5.25-4.54-7.896-.04-.08-.08-.182-.14-.263-.985-1.716-1.989-3.433-2.973-5.15-.663-1.13-1.306-2.262-1.968-3.393-.04-.08-.06-.14-.1-.222-1.407-2.443-2.813-4.867-4.199-7.31-.32-.566-.662-1.111-.944-1.697h-9.118l.12.242 5.966 10.36c.421.748.863 1.475 1.285 2.202.02.06.06.121.08.182 1.105 1.898 2.19 3.817 3.294 5.715.583.99 1.145 1.98 1.728 2.97.04.08.06.14.1.221.904 1.576 1.808 3.15 2.712 4.706.542.929 1.064 1.838 1.606 2.767l.06.12A335.44 335.44 0 0140.2 34.03c.08.162.18.202.361.202h8.837c-.04-.08-.08-.141-.12-.222zM23.65 9.997c-1.165-2.02-2.31-4.04-3.475-6.039-.301-.525-.623-1.07-.924-1.595-.1.04-.1.121-.14.182-1.025 1.777-2.05 3.574-3.073 5.351-.563.99-1.125 1.98-1.688 2.949-.482.848-.984 1.696-1.466 2.545l-2.832 4.968c-.04.06-.08.1-.1.162-1.185 2.08-2.39 4.14-3.575 6.22-.462.808-.904 1.615-1.366 2.423-.04.06-.08.101-.1.162-1.306 2.282-2.632 4.584-3.937 6.866-.281.465-.563.95-.703 1.475-.04.12-.02.262-.12.383v1.172c.02.02.04.06.04.08.08.505.24.97.502 1.394.984 1.737 1.988 3.454 2.972 5.19.14.223.261.465.422.707.04-.08.08-.12.1-.161 2.07-3.615 4.158-7.25 6.227-10.866.442-.767.863-1.534 1.305-2.302.402-.707.804-1.394 1.205-2.1.744-1.293 1.487-2.565 2.21-3.858.582-1.03 1.185-2.06 1.767-3.09.623-1.07 1.245-2.16 1.868-3.231.804-1.394 1.587-2.787 2.39-4.18.02-.041.06-.081.08-.122.804-1.393 1.607-2.807 2.41-4.2.101-.202.101-.324 0-.485zM61.208 34.05c-.682-1.192-1.386-2.404-2.068-3.595-.543-.95-1.105-1.899-1.647-2.848-.322-.586-.643-1.171-1.005-1.717l-.12-.242c-1.245-2.16-2.47-4.302-3.716-6.463-.562-.99-1.145-1.959-1.707-2.948-.04-.081-.06-.142-.1-.222l-3.314-5.756-1.929-3.332c-.02-.02-.02-.061-.04-.081-.944-1.656-1.888-3.292-2.832-4.928A3.782 3.782 0 0040.762.262C40.48.16 40.2.12 39.918.02h-7.37c1.465 2.544 2.932 5.069 4.378 7.613.522.91 1.044 1.798 1.586 2.707.02.06.06.12.08.181 1.387 2.424 2.773 4.827 4.178 7.25l1.386 2.364c.02.06.06.141.08.201 1.105 1.92 2.23 3.838 3.335 5.777.723 1.252 1.446 2.484 2.169 3.736.02.06.04.1.08.141.783 1.373 1.567 2.727 2.35 4.1.08.161.18.202.362.202h8.796c-.02-.142-.08-.182-.12-.242z"/><path d="M50.543 65.96h-1.868c.181-.89.362-1.758.543-2.646.28-1.353.582-2.686.843-4.04.04-.221.12-.302.362-.302.883.02 1.767.02 2.65 0 .162 0 .222.04.242.202.241 1.555.482 3.11.743 4.645.02.161.02.343.12.545.181-.99.362-1.919.543-2.868.14-.788.301-1.575.442-2.343.02-.08.02-.181.14-.181h1.768c-.402 1.878-.783 3.736-1.185 5.594l-.302 1.393h-3.173c-.281-1.777-.562-3.534-.823-5.311h-.06a271.211 271.211 0 01-.985 5.311zm13.638-9.31h-2.028c-.141 0-.181-.02-.141-.182.462-2.202.944-4.403 1.406-6.605.04-.181.1-.242.301-.242 1.065.02 2.13 0 3.214 0 .442 0 .883.02 1.305.142.924.282 1.185.908 1.125 1.676a12.495 12.495 0 01-.703 3.312c-.422 1.232-1.305 1.838-2.611 1.858-.643.04-1.265.04-1.868.04zm.944-1.637h.723c.462 0 .783-.242.964-.666.14-.303.201-.626.261-.95.1-.484.241-.969.282-1.474.02-.404-.121-.585-.523-.626-.562-.06-1.145 0-1.707-.02-.16 0-.14.101-.16.182-.242 1.13-.483 2.282-.724 3.413-.02.121 0 .141.1.141h.784zm-35.51-34.575c-1.446-2.504-2.872-5.029-4.318-7.533-.02-.06-.04-.121-.12-.141-.684 1.191-1.367 2.363-2.03 3.554-.522.909-1.024 1.818-1.546 2.727a128.734 128.734 0 00-2.089 3.615c-.361.626-.743 1.252-1.105 1.898a112.52 112.52 0 00-1.486 2.646c-.04.08-.1.141-.14.222-1.085 1.878-2.19 3.777-3.254 5.655-.422.747-.844 1.514-1.265 2.262-.02.02-.04.04-.06.08-2.21 3.838-4.42 7.695-6.629 11.532-.08.142-.02.222.04.323 1.346 2.363 2.712 4.726 4.058 7.069.12.222.24.424.381.666.06-.1.1-.161.14-.242 2.471-4.322 4.962-8.664 7.432-12.986.482-.828.944-1.676 1.426-2.524.322-.505.583-1.05.884-1.576.542-.97 1.125-1.918 1.687-2.888.703-1.211 1.386-2.443 2.089-3.655.04-.06.08-.101.1-.162.502-.888 1.005-1.797 1.527-2.686.321-.545.643-1.07.924-1.615.2-.344.422-.707.622-1.05.482-.849.964-1.697 1.426-2.525.442-.747.864-1.495 1.306-2.242.1-.182.08-.282 0-.424zm24.503 33.545c.06.02.1.02.14.02.704.142.945.485.824 1.172-.08.444-.18.888-.28 1.353-.02.08-.041.121-.141.121h-1.607c-.04 0-.1 0-.16-.02.08-.364.16-.727.22-1.09.1-.465-.12-.728-.562-.728h-1.286c-.12 0-.18.04-.2.162-.101.505-.222 1.01-.322 1.514-.02.122-.06.182-.2.182-.523 0-1.045-.02-1.567 0-.161 0-.141-.06-.12-.161.4-1.919.823-3.838 1.224-5.756.06-.323.14-.626.201-.95.02-.12.08-.14.18-.14 1.347.02 2.672-.041 4.018.04.301.02.623.08.904.222.341.182.522.464.542.828.06.767-.12 1.494-.422 2.201-.22.545-.683.788-1.205.93-.04.02-.1.02-.18.1zm-2.65-.828h1.566c.422 0 .602-.141.723-.565.08-.263.14-.525.18-.808.04-.303-.08-.465-.381-.485-.522-.06-1.044-.02-1.567-.02-.1 0-.12.04-.14.121a52.52 52.52 0 01-.382 1.757zM40.882 65.96h-1.847c.02-.384.16-.768.22-1.151.06-.445-.14-.667-.582-.687h-1.265c-.12 0-.181.04-.201.161-.12.566-.241 1.111-.362 1.656h-1.847c.08-.626.24-1.252.381-1.858l1.025-4.907c.04-.162.08-.222.26-.222h3.556c.381 0 .763.04 1.124.181.462.162.703.505.723.99.02.747-.14 1.454-.421 2.14-.201.506-.643.748-1.145.91-.1.02-.181.04-.281.08.02.081.08.061.14.081.643.101.924.444.844 1.09a9.862 9.862 0 01-.322 1.536zm-2.41-3.474s0-.02 0 0c.241-.02.502 0 .743-.02.342-.02.523-.162.623-.485.08-.263.14-.545.18-.828.04-.343-.08-.525-.441-.525H38.11c-.1 0-.161.04-.181.141-.1.525-.221 1.03-.321 1.555-.02.142.02.162.14.162.241-.02.482 0 .723 0zm-5.523-10.623c0-.06.02-.121.02-.162.04-.384-.04-.485-.422-.525-.401-.04-.803-.04-1.185.06-.361.081-.602.506-.482.87.04.16.181.201.322.221.542.04 1.084.101 1.626.142.322.04.643.08.965.181.542.182.783.505.743 1.07a5.35 5.35 0 01-.342 1.596c-.24.646-.723 1.03-1.366 1.212-1.124.303-2.27.303-3.414.121-.763-.121-1.085-.586-1.064-1.353 0-.263.06-.505.08-.767 0-.101.04-.122.14-.122h1.688c-.02.101-.04.162-.04.223-.04.302.06.464.361.525.482.06.984.08 1.466-.02.342-.061.643-.647.522-.97-.06-.161-.2-.182-.361-.202-.603-.04-1.205-.08-1.828-.141-.22-.02-.422-.06-.643-.101-.562-.162-.823-.505-.823-1.09 0-.587.12-1.132.341-1.657.302-.727.884-1.13 1.627-1.232a9.523 9.523 0 012.933 0c.803.121 1.165.626 1.064 1.434-.02.242 0 .566-.16.707-.141.121-.442.04-.683.04-.362-.06-.724-.06-1.085-.06zm1.868 4.787c.18-.849.341-1.677.522-2.505l.904-4.302c.04-.161.08-.222.26-.222.503.02 1.005 0 1.487 0 .14 0 .181.02.14.182-.16.747-.32 1.515-.481 2.262-.04.182 0 .202.16.202h2.009c.16 0 .2-.04.24-.202.162-.747.322-1.515.483-2.262.02-.142.08-.182.22-.182.483 0 .985.02 1.467 0 .2 0 .221.06.18.222-.24 1.151-.481 2.303-.742 3.474-.221 1.03-.442 2.08-.663 3.11-.04.142-.08.222-.241.202-.502-.02-1.004-.02-1.486 0-.161 0-.181-.04-.161-.202.18-.788.321-1.575.502-2.363.02-.141.02-.182-.12-.182h-2.07c-.14 0-.16.061-.2.182-.16.808-.341 1.596-.502 2.404-.02.1-.04.161-.16.161-.563.02-1.126.02-1.748.02zm6.608 0c.26-.526.502-1.01.763-1.515a645.807 645.807 0 002.671-5.251c.1-.182.181-.263.402-.263.783.02 1.566.02 2.33 0 .16 0 .24.04.26.222.121 1.333.222 2.646.342 3.979l.241 2.625c.02.182-.04.202-.2.202-.503-.02-1.005-.02-1.527 0-.16 0-.2-.06-.2-.181l-.061-.768c0-.182-.04-.242-.241-.242-.683.02-1.366.02-2.049 0-.16 0-.24.06-.301.202-.14.282-.281.565-.422.868-.04.08-.06.142-.16.142-.603-.02-1.206-.02-1.848-.02zm3.233-2.566h1.567c.1 0 .12-.02.12-.12-.06-.647-.08-1.293-.14-1.96-.02-.282 0-.565-.1-.888-.483 1.01-.944 1.979-1.447 2.968zm3.576 11.876h-1.909a17.84 17.84 0 01-.1-1.03c0-.122-.04-.142-.16-.142h-2.19c-.12 0-.16.04-.22.141-.182.344-.362.707-.523 1.05-.643 0-1.285 0-1.928-.02.542-1.07 1.084-2.14 1.627-3.23.602-1.192 1.225-2.384 1.827-3.596.06-.12.141-.161.262-.161h2.45c.16 0 .2.04.22.202l.362 3.998c.12.93.201 1.858.282 2.787zm-2.31-5.474c-.02 0-.02-.02-.04-.02-.482.97-.944 1.939-1.426 2.929h1.486c.18 0 .22-.04.2-.223-.08-.888-.16-1.777-.22-2.686zm12.432-3.836h-2.33c-.16 0-.22-.02-.18-.203.462-2.18.924-4.382 1.386-6.563.04-.182.1-.263.3-.263 1.527.02 3.034 0 4.56 0 .2 0 .241.04.2.242-.1.364-.18.727-.24 1.111-.02.182-.08.243-.281.243-.904-.02-1.808 0-2.732 0-.16 0-.24.04-.261.222-.04.282-.1.565-.18.848-.04.162 0 .182.16.182h2.51c.262 0 .282.08.221.282-.08.283-.12.566-.18.849-.02.141-.08.202-.261.202-.844 0-1.688 0-2.531-.02-.2 0-.261.08-.281.242-.06.303-.12.585-.181.868-.04.162-.02.222.18.222h2.793c.16 0 .22.02.18.202-.1.384-.18.768-.24 1.151-.02.162-.081.182-.242.182h-2.37zM44.538 44.734H42.63c-.18 0-.2-.06-.16-.202.16-.727.32-1.454.461-2.161.02-.142.06-.182.221-.182h3.856c.12 0 .181 0 .141.161-.16.728-.321 1.475-.462 2.222-.02.141-.08.182-.22.182-.644-.02-1.286-.02-1.929-.02zM25.92 49.48h-7.814c-.12 0-.24.02-.361.02-.543 0-1.085-.02-1.627-.02-.08 0-.12.04-.16.12-.302.546-.623 1.091-.925 1.616-1.064 1.818-2.129 3.615-3.153 5.473-.02.02-.02.061-.02.101h5.884c.905.02 1.808.02 2.712 0 .14 0 .281-.02.422-.08h.1c1.085-.303 1.929-.93 2.47-1.919.222-.384.403-.808.623-1.192a357.079 357.079 0 012.009-3.877c.1-.202.04-.242-.16-.242zm9.58-1.657c-.924 0-1.748-.04-2.551-.242-1.727-.444-2.29-1.575-2.109-3.11.2-1.636.582-3.231.984-4.807.543-2.08 1.968-3.21 4.057-3.494 1.326-.181 2.632-.202 3.957 0 .382.06.743.142 1.085.283 1.024.424 1.566 1.232 1.586 2.363.02.707-.14 1.393-.28 2.08-.242 1.09-.423 2.222-.724 3.292-.382 1.353-1.125 2.424-2.43 3.03-.743.343-1.527.484-2.33.545-.442.06-.904.08-1.245.06zm.401-2.706h.543c1.245-.04 1.727-.424 2.028-1.636.181-.727.322-1.474.482-2.221.1-.485.241-.95.241-1.454.02-.627-.2-.91-.803-1.01-.583-.101-1.165-.081-1.747-.04-.965.06-1.406.383-1.708 1.312-.26.828-.381 1.676-.582 2.504-.12.505-.241 1.01-.241 1.555 0 .546.22.788.743.91.382.08.743.08 1.044.08z"/></g><defs><clipPath id="clip0"><path fill="#fff" transform="translate(.15)" d="M0 0h71v66H0z"/></clipPath></defs></svg>