<svg width="51" height="78" fill="none" xmlns="http://www.w3.org/2000/svg"><path d="M21.724 5.481c2.627 8.249-13.895 9.012-6.542 16.354.24-1.287 1.958-3.004 3.39-1.812 8.119 6.008 19.627 4.959 24.88 15.925 3.915 3.91 3.008 6.675 6.542 10.727-.239 1.05.668 1.717.286 2.766-.286 0-.668.143-.907-.286-.764.667-.764 1.954-.239 2.765-6.59-1.335-11.938-7.629-20.199-5.912-.764 1.43-2.101 2.765-2.483 4.29l9.407.382L35.62 78H20.817c0-8.344 1.576-17.784-.668-25.079-1.05-4.434 4.202-2.765 5.11-6.293.524-.382.668-.906.524-1.574-7.21-4.434-15.853-9.01-18.193-17.927 0-.667.143-1.573-.669-1.954-1.719 2.86-4.059 5.483-5.252 8.486-1.958-2.098.764-3.91.907-5.864 3.82-7.724 6.303-15.972 8.786-24.173 1.29-1.573 2.865-2.24 4.728-2.48 2.483-.905 4.87 2.385 5.634 4.34z" fill="#004D71"/></svg>