<svg width="340" height="140" fill="none" xmlns="http://www.w3.org/2000/svg"><g clip-path="url(#clip0)" fill="#004D71"><path d="M332.487 87.9h-.346v1.128h.346c.431 0 .777-.174.777-.607.086-.26-.173-.52-.777-.52zm-156.744-5.287c0-1.127 0-1.907-.086-2.34a.478.478 0 00-.259-.434c-.691-.433-1.469-.607-2.419-.607a2.43 2.43 0 00-1.295.347c-.432.26-.691.433-.864.694-.518.693-.777 1.733-.777 3.12 0 1.214.259 2.254.777 3.034.432.78 1.209 1.127 2.246 1.127 1.122 0 1.986-.26 2.677-.78.086-.087.173-.26.173-.52v-1.3c-.173-1.04-.173-1.734-.173-2.341zm-24.872-.433c.432 0 .95 0 1.641-.087.259 0 .691-.087 1.382-.26.691-.174 1.123-.26 1.295-.347.087-.087.173-.087.173-.173 0 0 0-.087-.086-.26-.173-.347-.259-.52-.346-.607-.173-.26-.432-.434-.691-.78-.432-.347-.95-.52-1.554-.52-.518 0-.95.26-1.296.78-.086.173-.259.52-.431.953-.173.434-.173.867-.173 1.127 0 .087 0 .174.086.174z"/><path d="M332.659 86.6c-1.381 0-2.418 1.128-2.418 2.515 0 1.473 1.123 2.6 2.418 2.6 1.296 0 2.418-1.127 2.418-2.514 0-1.473-1.036-2.6-2.418-2.6zm.778 4.335c-.087-.087-.173-.433-.259-.867-.087-.433-.26-.607-.691-.607h-.346v1.474h-.518v-3.38c.259 0 .518-.088.95-.088.518 0 .864.087 1.036.26.173.174.346.347.346.694 0 .433-.259.694-.691.78.259.087.518.347.604.78.087.52.173.694.173.867h-.604v.087z"/><path d="M102.25 95.876H338.1v-29.3H102.25v29.3zm179.025-21.585c.346-.433.777-.607 1.295-.607.605 0 .864.26.864.867 0 .433-.259.867-.691 1.214a1.364 1.364 0 01-1.036.433c-.605 0-.95-.26-.95-.867 0-.347.173-.693.518-1.04zm-89.642 0c.346-.433.777-.607 1.296-.607.604 0 .863.26.863.867 0 .433-.259.867-.691 1.214a1.364 1.364 0 01-1.036.433c-.605 0-.95-.26-.95-.867 0-.347.173-.693.518-1.04zm-71.161 13.35c-1.295.953-2.504 1.387-3.799 1.387-1.037 0-1.814-.174-2.332-.434-.864-.433-1.555-1.126-2.073-1.907-.432-.693-.691-1.733-.691-2.947 0-.694.087-1.474.346-2.254s.691-1.474 1.468-2.167c.777-.694 1.813-1.04 3.195-1.04 1.296 0 2.332.433 3.196 1.213.518.52.777.954.777 1.387 0 .434-.173.607-.518.607-.519 0-1.037-.173-1.382-.607-.346-.347-.518-.78-.691-1.387-.086-.26-.259-.52-.605-.52-.259-.087-.518-.087-.69-.087-.519 0-.778 0-.95.087-.432.174-.864.52-1.209.954-.432.693-.691 1.733-.691 2.947 0 1.474.345 2.6 1.122 3.554.605.694 1.555 1.127 2.85 1.127 1.037 0 1.9-.26 2.591-.693.086-.087.173-.087.346-.26.086-.087.172-.087.259.086.086.087.086.087.086.174-.086.26-.259.433-.605.78zm18.481-8.062a5.02 5.02 0 01-.431 1.474c0 .086-.087.173-.259.26-.087 0-.173 0-.259-.087-.26-.433-.519-.607-.605-.694-.345-.26-.691-.346-1.123-.346-.777 0-1.295.173-1.727.52-.086.087-.086.173-.086.347v5.288c0 1.3.172 1.907.432 1.907l1.986.086c.086 0 .173.087.173.174v.433c0 .087 0 .087-.087.087l-5.959-.087c-.086 0-.172 0-.172-.087v-.433c0-.087.086-.173.172-.173h1.209c.173 0 .259-.087.259-.174v-7.281c0-1.04-.172-1.56-.345-1.56h-1.209c-.086 0-.086 0-.086-.088v-.433c0-.087 0-.087.086-.087h1.641c.604 0 1.036 0 1.382-.086.345-.087.518-.174.69-.174.087 0 .173.087.173.347v1.04c0 .174.087.26.173.174.518-.434.864-.694.95-.78.604-.434 1.209-.607 1.727-.607.691 0 1.295.26 1.641.867-.346 0-.346.086-.346.173zm19 7.628a5.659 5.659 0 01-1.987 1.3c-.863.347-1.727.608-2.59.608-1.382 0-2.505-.434-3.282-1.214-.95-.867-1.468-2.08-1.555-3.468-.086-.78 0-1.473.26-2.34.259-1.127.777-1.994 1.468-2.6.691-.694 1.554-1.041 2.59-1.041.778 0 1.555.173 2.419.433.69.26 1.295.694 1.899 1.214.432.433.691.78.864 1.04.086.087.086.174.086.347 0 .087-.086.173-.172.173-.087.087-.605.174-1.468.347-.864.174-1.382.26-1.555.347-.432.087-.95.173-1.382.173-.863.087-1.468.174-1.727.174h-.863c-.087 0-.087.173-.087.52.087 1.474.518 2.6 1.296 3.554.259.26.69.52 1.295.694.518.173 1.123.173 1.641.173.863 0 1.554-.174 1.986-.434.346-.173.518-.346.691-.52l.086-.086.173.173.086.087c-.172.26-.172.26-.172.346zm22.194.52c-.691.26-1.641.607-2.591.954-.777.347-1.295.52-1.554.52-.086 0-.173-.086-.173-.26v-1.474c-.086-.173-.172-.173-.259-.086-.432.347-.95.78-1.468 1.04-.604.347-1.382.52-2.332.52-.604 0-1.209-.173-1.813-.52-.691-.433-1.123-.867-1.468-1.56a7.5 7.5 0 01-.691-3.121c0-1.82.518-3.207 1.468-4.161.864-.78 1.986-1.214 3.541-1.214.777 0 1.641.26 2.677.78.086.087.173 0 .173-.173v-4.074c0-1.3-.173-1.994-.519-1.994h-1.554c-.086 0-.086-.087-.086-.173v-.347c0-.087 0-.174.086-.174h.518c1.036 0 1.9-.086 2.591-.346.691-.26 1.036-.347 1.123-.347.086 0 .172.087.172.347v13.783c0 1.387.173 2.08.605 1.994.259-.087.604-.174 1.036-.347.259-.087.432-.173.518-.173.087 0 .087.086.087.347 0 .173 0 .26-.087.26zm15.372 1.04c0 .088 0 .088-.086.088h-5.7v-.521c0-.086 0-.086.087-.086h1.381c.087 0 .173-.087.173-.174.086-3.38.086-5.721.086-7.021 0-1.127-.172-1.734-.431-1.734h-1.209c-.087 0-.173-.087-.173-.174v-.52c0-.086 0-.086.086-.086h2.677c.691-.087 1.123-.087 1.209-.087.087 0 .173.087.173.26v2.08c-.086.52-.086 2.341-.086 5.375 0 1.56.173 2.254.432 2.254h1.381c.087 0 .087 0 .087.087v.26h-.087zm17.272-1.126c-.345.26-.777.52-1.381.78-.864.347-1.728.52-2.505.52-.863 0-1.468-.26-1.986-.693-.432-.434-.691-1.04-.691-1.734 0-.087 0-.954.086-2.427 0-1.56.087-2.34.087-2.428 0-1.04 0-1.56-.087-1.733 0-.087-.086-.26-.259-.434-.259-.086-.518-.26-.863-.433-.087-.087-.173-.174-.173-.26 0-.087.086-.174.173-.26.172-.087.604-.434 1.468-1.04.777-.607 1.209-.954 1.295-1.04.087-.088.259-.174.346-.174.172 0 .259.087.259.347 0 .433-.087.866-.173 1.473 0 .26 0 .347.086.347 1.123.087 2.332.173 3.714.173.173 0 .173.087.173.26 0 .174-.087.434-.173.78 0 .087-.086.174-.173.174-.086 0-.691 0-1.813-.087-1.123-.086-1.641-.086-1.728-.086-.086 0-.172.086-.172.173v5.808c0 .954.172 1.56.432 1.734.259.173.777.26 1.468.26s1.381-.087 1.9-.347l.518-.26s.086.087.259.347c.086.087 0 .173-.087.26zm35.063.953c-.346.087-.778.174-1.296.26a4.161 4.161 0 01-.604.26c-.087.087-.173.087-.173.087-.086 0-.173-.086-.345-.173-.259-.174-.605-.694-.95-1.56 0-.087-.087-.087-.259 0-.26.26-.95.693-2.073 1.3-.432.173-1.123.26-2.159.26-.691 0-1.209-.26-1.641-.78-.432-.52-.604-1.127-.604-1.734v-4.421c0-1.907-.173-2.86-.519-2.86h-1.295c-.086 0-.173 0-.173-.088v-.433c0-.087 0-.087.087-.087h1.468c.691 0 1.295 0 1.727-.086.345 0 .604-.087.691-.087.086 0 .173.087.173.347v7.195c0 .693.086 1.213.345 1.474.259.26.691.346 1.382.346.604 0 1.209-.173 1.813-.433a7.54 7.54 0 01.864-.52c.086 0 .086-.087.086-.174v-5.721c0-1.04-.172-1.56-.432-1.56h-1.209c-.086 0-.172 0-.172-.087v-.434c0-.086 0-.086.086-.086h1.727c.518 0 .95 0 1.296-.087.086 0 .172 0 .345-.087.173 0 .346 0 .346-.086.086 0 .172.086.172.346v7.282c0 1.04.346 1.82 1.123 2.254.086.087.173.087.173.173.086-.086.086-.173 0 0zm21.849.087c0 .087 0 .174-.087.174h-4.836c-.086 0-.086 0-.086-.087v-.434c0-.086 0-.086.086-.086h.864c.086 0 .173-.087.173-.174.086-.953.172-2.6.172-5.028 0-1.213-.172-2.08-.518-2.427-.345-.433-.863-.607-1.554-.607-.691 0-1.382.087-2.073.347-.086.087-.173.174-.173.347-.086.347-.086 2.08-.086 5.374 0 1.56.086 2.341.345 2.341h1.123c.086 0 .086 0 .086.087v.433c0 .087 0 .087-.086.087h-5.354v-.52c0-.087 0-.087.086-.087h1.296c.086 0 .172-.087.172-.173.087-3.381.087-5.808.087-7.195 0-1.127-.087-1.647-.346-1.647h-1.295c-.087 0-.173-.087-.173-.174V78.8c0-.087 0-.087.086-.087h1.555c.518 0 .863 0 1.123-.087.69-.086 1.122-.086 1.209-.086.086 0 .172.086.172.26v.867c0 .26.087.346.173.26.345-.26.864-.52 1.382-.78.691-.347 1.209-.52 1.813-.52.95 0 1.728.26 2.246.78.604.606.95 1.647.95 3.12 0 .52 0 1.387-.087 2.514 0 1.214-.086 1.82-.086 1.734v1.04c0 .347.086.52.259.52h1.209c.086 0 .173 0 .173.087v.26zm15.458.087c0 .087 0 .087-.086.087h-5.7v-.521c0-.086 0-.086.087-.086h1.381c.087 0 .173-.087.173-.174.086-3.38.086-5.721.086-7.021 0-1.127-.172-1.734-.431-1.734h-1.209c-.087 0-.173-.087-.173-.174v-.52c0-.086 0-.086.086-.086h2.677c.691-.087 1.123-.087 1.209-.087.087 0 .173.087.173.26v2.08c-.086.52-.086 2.341-.086 5.375 0 1.56.172 2.254.432 2.254h1.381c.087 0 .087 0 .087.087v.26h-.087zm19.777-2.6a4.478 4.478 0 01-1.9 2.08c-.777.52-1.727.78-2.85.78-1.036 0-1.814-.174-2.332-.434-1.122-.52-1.813-1.213-2.245-1.993a8.75 8.75 0 01-.777-2.948c0-1.127.259-2.167.777-3.034a5.28 5.28 0 012.073-1.82c.69-.347 1.727-.52 2.936-.52 1.036 0 1.813.173 2.504.606a4.094 4.094 0 011.727 1.908c.346.78.519 1.733.519 2.774.172 1.04 0 1.907-.432 2.6zm22.54 2.513c0 .087 0 .174-.087.174h-4.836c-.086 0-.086 0-.086-.087v-.434c0-.086 0-.086.086-.086h.864c.086 0 .173-.087.173-.174.086-.953.172-2.6.172-5.028 0-1.213-.172-2.08-.518-2.427-.345-.433-.863-.607-1.554-.607-.691 0-1.296.087-2.073.347-.086.087-.173.174-.173.347-.086.347-.086 2.08-.086 5.374 0 1.56.086 2.341.345 2.341h1.123c.086 0 .086 0 .086.087v.433c0 .087 0 .087-.086.087h-5.354v-.52c0-.087 0-.087.086-.087h1.295c.087 0 .173-.087.173-.173.087-3.381.087-5.808.087-7.195 0-1.127-.087-1.647-.346-1.647h-1.295c-.087 0-.173-.087-.173-.174V78.8c0-.087 0-.087.086-.087h1.555c.518 0 .863 0 1.122-.087.691-.086 1.123-.086 1.21-.086.086 0 .172.086.172.26v.867c0 .26.087.346.173.26.345-.26.864-.52 1.382-.78.604-.347 1.209-.52 1.813-.52.95 0 1.728.26 2.246.78.604.606.95 1.647.95 3.12 0 .52 0 1.387-.087 2.514 0 1.214-.086 1.82-.086 1.734v1.04c0 .347.086.52.259.52h1.209c.086 0 .173 0 .173.087v.26zm5.181 3.554a3.01 3.01 0 01-3.022-3.034c0-1.647 1.295-3.034 3.022-3.034 1.641 0 2.937 1.3 2.937 3.034.086 1.647-1.296 3.034-2.937 3.034z"/><path d="M299.583 79.145c-.777 0-1.381.26-1.64.78-.432.694-.691 1.648-.691 2.861 0 1.214.259 2.428.691 3.555.259.693.69 1.213 1.209 1.56.431.26.863.433 1.468.433.604 0 1.036-.086 1.382-.346.431-.347.777-.78 1.036-1.474.259-.607.345-1.387.345-2.427 0-1.474-.345-2.688-1.036-3.555-.864-1.04-1.727-1.473-2.764-1.386zM120.386 40.223c0-1.734-.691-3.294-2.073-4.855-1.381-1.56-3.627-2.34-6.649-2.34-.518 0-.778 0-.864.087-.086.086-.173.173-.173.433-.086.867-.086 2.947-.086 6.241v5.721c0 .174.086.348.259.348.95.346 2.073.52 3.282.52 2.159 0 3.713-.52 4.663-1.474 1.037-1.127 1.641-2.687 1.641-4.681zm4.404-.347c0 2.167-.777 3.988-2.331 5.548-1.728 1.734-4.232 2.514-7.427 2.514-1.555 0-3.023-.173-4.405-.607-.086 0-.172.087-.172.26v6.155c0 3.208.259 4.768.863 4.768h3.282c.173 0 .259.087.259.26v.867c0 .173-.086.26-.173.26H102.25c-.086 0-.172-.087-.172-.173v-.954c0-.173.086-.26.172-.26h3.023c.259 0 .345-.173.345-.52V36.929c0-2.514-.172-3.814-.518-3.814h-2.331c-.173 0-.26-.087-.26-.174v-.953c0-.174.087-.174.26-.174l5.527-.26h5.613c1.641 0 3.023.087 4.145.26 1.641.26 3.196 1.04 4.664 2.428 1.295 1.3 2.072 3.207 2.072 5.634zm15.2 5.982s-.087-.174-.173-.52c-.345-.607-.518-.954-.691-1.127-.345-.434-.777-.867-1.382-1.387-.863-.694-1.813-1.04-2.849-1.04-.864 0-1.641.52-2.332 1.473-.259.347-.518.954-.691 1.82-.259.867-.345 1.56-.345 2.08 0 .261.086.434.172.434.778 0 1.727-.086 3.023-.173.432 0 1.295-.173 2.591-.52 1.295-.26 2.072-.52 2.504-.607.086-.173.173-.26.173-.433zm4.922 10.749c0 .087-.086.173-.086.26-.95.953-2.159 1.734-3.627 2.427a11.847 11.847 0 01-4.836 1.04c-2.591 0-4.664-.693-6.132-2.167-1.727-1.647-2.677-3.814-2.85-6.501-.086-1.387.087-2.774.432-4.248.518-2.08 1.468-3.728 2.677-4.855 1.382-1.3 2.936-1.907 4.836-1.907 1.469 0 2.937.26 4.405.78 1.295.52 2.418 1.214 3.454 2.254.691.694 1.296 1.387 1.555 1.907.086.174.172.347.172.607 0 .174-.086.26-.345.434-.259.087-1.123.26-2.677.607-1.555.346-2.505.52-2.936.606-.864.087-1.641.26-2.505.434-1.641.26-2.677.347-3.195.347h-1.727c-.173 0-.173.346-.173 1.04.086 2.687.95 4.854 2.332 6.588.518.52 1.295 1.04 2.418 1.3 1.036.26 1.986.434 3.022.347 1.555 0 2.764-.26 3.714-.78.604-.347 1.036-.607 1.295-.867.086 0 .086-.087.173-.087.086 0 .173.087.432.26.086.087.172.087.172.174zm12.35 3.121a.186.186 0 01-.173.173h-10.795c-.173 0-.259-.087-.259-.173v-.78c0-.174.086-.26.259-.26h2.936c.259 0 .432-.174.432-.52v-23.06c0-3.207-.259-4.854-.863-4.854h-2.159c-.173 0-.259-.087-.259-.26V29.3c0-.173.086-.346.172-.346h1.987c1.122 0 2.245-.174 3.54-.434 1.037-.26 1.555-.433 1.468-.433.346 0 .432.173.432.607 0 .086-.086 4.16-.173 12.482-.086 8.236-.172 12.483-.172 12.83 0 3.12.259 4.595.777 4.595h2.591c.173 0 .173.086.173.173v.954h.086zm8.722-26.44c0 .867-.432 1.647-1.209 2.254-.691.607-1.382.867-1.986.867-1.123 0-1.727-.52-1.727-1.647 0-.607.259-1.214.863-1.907.691-.78 1.468-1.127 2.505-1.127 1.036 0 1.554.52 1.554 1.56zm3.368 26.44c0 .086-.086.173-.172.173h-10.536s-.087-.087-.087-.173v-.78c0-.087.087-.174.173-.174h2.591c.259 0 .345-.173.345-.433.087-6.242.087-10.663.087-13.09 0-2.167-.259-3.208-.864-3.208h-2.245c-.173 0-.259-.086-.259-.26v-1.04c0-.087.086-.173.172-.173h2.85c.864 0 1.641 0 2.159-.087 1.382-.173 2.073-.173 2.159-.173.173 0 .259.173.259.52v3.727c-.172.954-.172 4.335-.172 9.97 0 2.86.259 4.247.777 4.247h2.504c.173 0 .173.087.173.173v.78h.086zm19.259-3.295c0 .174-.346.607-1.037 1.127-2.331 1.734-4.663 2.601-7.081 2.601-1.9 0-3.368-.26-4.318-.78a10.282 10.282 0 01-3.886-3.554c-.778-1.387-1.209-3.208-1.209-5.462 0-1.3.259-2.687.69-4.074.432-1.387 1.382-2.774 2.764-3.988 1.382-1.3 3.368-1.907 5.959-1.907 2.418 0 4.318.78 5.872 2.254.95.954 1.382 1.82 1.382 2.514 0 .78-.259 1.214-.864 1.214-1.036 0-1.9-.347-2.59-1.127-.605-.607-1.037-1.474-1.296-2.514-.173-.52-.518-.867-1.122-1.04-.519-.087-.95-.174-1.296-.174-.863 0-1.468.087-1.813.174-.864.346-1.641.866-2.159 1.733-.864 1.3-1.296 3.208-1.296 5.548 0 2.688.691 4.855 2.159 6.675 1.123 1.387 2.85 2.08 5.268 2.08 1.9 0 3.541-.433 4.836-1.3.173-.086.346-.26.605-.433.173-.173.345-.173.432.087v.346zm12.522-5.634c0-.26-.087-.434-.346-.434-.95 0-1.986.26-3.022.78-1.986 1.04-3.023 2.341-3.023 4.075 0 1.04.259 1.734.777 2.167.519.433 1.123.607 1.728.52 1.122-.173 2.159-.867 3.109-2.167a2.7 2.7 0 00.518-1.127c.086-1.3.259-2.6.259-3.814zm8.118 7.715c0 .087-.087.173-.173.347-.691.693-1.382 1.213-1.9 1.473a.657.657 0 01-.432.174c-1.036 0-2.072-.347-3.109-1.127-1.122-.78-1.813-1.647-2.245-2.688-.086-.26-.173-.26-.346-.086a7.626 7.626 0 01-1.899 2.167c-1.209.954-2.505 1.474-3.887 1.474a6.295 6.295 0 01-2.85-.694c-.949-.52-1.381-1.387-1.381-2.6 0-1.387.432-2.601 1.295-3.728.864-1.04 2.073-1.907 3.627-2.427 1.641-.607 3.282-1.127 5.095-1.474.087 0 .173-.173.173-.433.087-2.08.087-3.468 0-4.248-.086-.694-.345-1.3-.863-1.647-.605-.434-1.296-.694-2.246-.694s-1.727.174-2.331.607c-.26.174-.432.52-.432.954v.78c0 .694-.173 1.3-.432 1.82-.432.867-1.209 1.214-2.332 1.214-.863 0-1.295-.347-1.295-1.04 0-.694.345-1.474 1.036-2.427.691-.954 1.468-1.648 2.418-2.168 1.468-.78 3.196-1.213 5.182-1.213 1.813 0 3.195.433 4.231 1.3.346.26.691.867.95 1.56.173.694.346 1.3.259 1.82l-.431 8.236c-.087 1.56.345 2.687 1.295 3.38.777.608 1.727 1.041 2.85 1.388.086-.173.173-.087.173 0zm23.231 1.126c0 .174-.087.26-.173.26h-8.895c-.173 0-.173-.086-.173-.172v-.867c0-.174.086-.174.173-.174h1.554c.173 0 .259-.086.346-.346.172-1.734.259-4.855.259-9.363 0-2.34-.346-3.814-.95-4.507-.605-.694-1.555-1.127-2.85-1.127-1.209 0-2.505.26-3.8.693-.259.087-.345.26-.345.607-.087.607-.087 3.9-.087 9.882 0 2.861.259 4.248.691 4.248h2.073c.173 0 .259.087.259.173v.867c0 .087-.086.174-.259.174h-9.845s-.087-.087-.087-.174v-.78c0-.087.087-.173.173-.173h2.418c.259 0 .346-.174.346-.434.086-6.241.086-10.749.086-13.35 0-2.08-.259-3.12-.691-3.12h-2.418c-.173 0-.259-.087-.259-.26v-.954c0-.087.086-.173.173-.173h2.85c.863 0 1.64 0 2.159-.087 1.381-.173 2.072-.173 2.159-.173.172 0 .259.173.259.52v1.56c0 .434.086.607.259.52a30.762 30.762 0 012.591-1.473c1.209-.607 2.331-.867 3.368-.867 1.813 0 3.195.52 4.231 1.473 1.123 1.127 1.727 3.121 1.727 5.808 0 .954 0 2.514-.086 4.768s-.086 3.294-.086 3.294v1.82c0 .78.172 1.128.431 1.128h2.16c.172 0 .259 0 .259.086v.694zm31.089-7.28c0 2.08-.863 3.9-2.504 5.547-.95.867-1.986 1.474-3.023 1.82-1.122.347-2.677.52-4.663.52-2.764 0-5.441-.693-7.859-1.993-.173-.087-.345-.347-.345-.867v-5.201c0-.174.172-.26.431-.26h.864c.259 0 .432.086.432.26 0 .52 0 1.04.086 1.474.259 1.3.864 2.34 1.986 3.294 1.123.953 2.591 1.387 4.491 1.387 2.591 0 4.404-.867 5.354-2.514.432-.78.605-1.734.605-2.948 0-1.127-.345-1.993-1.123-2.687-.777-.867-2.245-1.647-4.49-2.34-2.505-.78-4.491-1.821-5.959-3.121s-2.246-3.208-2.246-5.808c0-2.34 1.037-4.421 3.109-6.069 1.641-1.3 3.714-1.907 6.305-1.907 2.849 0 5.095.607 6.736 1.908.259.173.345.346.345.606.173.954.259 2.34.259 4.335 0 .26-.086.433-.173.433h-1.036c-.173 0-.259-.087-.259-.26-.086-.52-.259-1.04-.432-1.56-.259-.867-.777-1.56-1.554-2.08-1.296-.868-2.936-1.301-5.009-1.301-1.555 0-2.764.433-3.627 1.214-.95.953-1.382 2.167-1.382 3.64 0 1.04.518 1.994 1.382 2.948.432.52 2.072 1.3 4.836 2.34 1.641.694 2.85 1.214 3.541 1.56 1.209.694 2.331 1.388 3.109 2.255 1.209 1.3 1.813 3.034 1.813 5.374zm17.272 4.854c.087.086 0 .26-.259.52-.604.52-1.468.953-2.504 1.387a11.81 11.81 0 01-4.664.953c-1.554 0-2.763-.433-3.627-1.213-.863-.78-1.295-1.907-1.295-3.294 0-.174 0-1.734.086-4.595.086-2.86.087-4.334.087-4.508 0-1.82-.001-2.947-.087-3.294 0-.173-.173-.433-.518-.78-.432-.26-1.036-.52-1.641-.78-.259-.087-.345-.26-.345-.52s.086-.434.345-.52c.346-.174 1.209-.78 2.677-1.82 1.468-1.041 2.246-1.734 2.418-1.908.173-.173.432-.26.691-.26.346 0 .518.173.432.607-.086.78-.173 1.647-.259 2.687 0 .434 0 .607.173.694 1.986.173 4.318.346 6.909.346.259 0 .345.174.345.434-.086.347-.173.867-.345 1.387-.087.173-.173.26-.432.26-.173 0-1.296-.087-3.282-.173-2.073-.087-3.109-.174-3.195-.174-.173 0-.259.087-.259.347v10.836c0 1.734.259 2.86.777 3.294.432.347 1.382.52 2.763.52 1.296 0 2.505-.173 3.541-.607l.95-.433c.173 0 .259.173.518.607zm12.263-6.415c0-.26-.086-.434-.345-.434-.95 0-1.9.26-3.023.78-1.986 1.04-3.022 2.341-3.022 4.075 0 1.04.259 1.734.777 2.167.518.433 1.123.607 1.727.52 1.123-.173 2.159-.867 3.109-2.167.259-.347.432-.694.518-1.127.173-1.3.259-2.6.259-3.814zm8.205 7.715c0 .087-.087.173-.173.347-.691.693-1.382 1.213-1.9 1.473a.657.657 0 01-.432.174c-1.036 0-2.072-.347-3.109-1.127-1.122-.78-1.813-1.647-2.245-2.688-.087-.26-.173-.26-.346-.086a7.614 7.614 0 01-1.9 2.167c-1.209.954-2.504 1.474-3.886 1.474a6.295 6.295 0 01-2.85-.694c-.95-.52-1.381-1.387-1.381-2.6 0-1.387.431-2.601 1.295-3.728.864-1.04 2.073-1.907 3.627-2.427 1.641-.607 3.282-1.127 5.095-1.474.087 0 .173-.173.173-.433.086-2.08.086-3.468 0-4.248-.086-.694-.345-1.3-.863-1.647-.605-.434-1.296-.694-2.246-.694s-1.727.174-2.332.607c-.259.174-.431.52-.431.954v.78c0 .694-.173 1.3-.432 1.82-.432.867-1.209 1.214-2.332 1.214-.863 0-1.295-.347-1.295-1.04 0-.694.345-1.474 1.036-2.427.691-.954 1.468-1.648 2.418-2.168 1.468-.78 3.195-1.213 5.182-1.213 1.813 0 3.195.433 4.231 1.3.346.26.691.867.95 1.56.173.694.346 1.3.259 1.82l-.431 8.236c-.087 1.56.345 2.687 1.295 3.38.777.608 1.727 1.041 2.85 1.388 0-.173.173-.087.173 0zm15.544-1.3c.087.086 0 .26-.259.52-.604.52-1.468.953-2.504 1.387a11.806 11.806 0 01-4.664.953c-1.554 0-2.763-.433-3.627-1.213-.863-.78-1.295-1.907-1.295-3.294 0-.174 0-1.734.086-4.595.087-2.86.087-4.334.087-4.508 0-1.82 0-2.947-.087-3.294 0-.173-.172-.433-.518-.78a29.44 29.44 0 00-1.641-.78c-.259-.087-.345-.26-.345-.52s.086-.434.345-.52c.346-.174 1.209-.78 2.677-1.82 1.469-1.041 2.246-1.734 2.419-1.908.172-.173.431-.26.69-.26.346 0 .519.173.432.607-.086.78-.172 1.647-.259 2.687-.086.434 0 .607.173.694 1.986.173 4.318.346 6.909.346.259 0 .345.174.345.434-.086.347-.173.867-.345 1.387-.087.173-.173.26-.432.26-.173 0-1.296-.087-3.282-.173-2.072-.087-3.109-.174-3.195-.174-.173 0-.259.087-.259.347v10.836c0 1.734.259 2.86.777 3.294.432.347 1.382.52 2.764.52 1.295 0 2.504-.173 3.54-.607l.95-.433c.173 0 .346.173.518.607zm14.595-11.356s-.086-.174-.172-.52a20.662 20.662 0 01-.605-1.127c-.345-.434-.777-.867-1.382-1.387-.863-.694-1.813-1.04-2.85-1.04-.863 0-1.64.52-2.331 1.473-.259.347-.518.954-.691 1.82-.259.867-.346 1.56-.346 2.08 0 .261.087.434.173.434.777 0 1.727-.086 3.023-.173.432 0 1.295-.173 2.591-.52 1.295-.26 2.072-.52 2.504-.607 0-.173.086-.26.086-.433zm4.923 10.749c0 .087-.086.173-.086.26-.95.953-2.159 1.734-3.628 2.427a11.844 11.844 0 01-4.836 1.04c-2.591 0-4.663-.693-6.131-2.167-1.728-1.647-2.678-3.814-2.85-6.501-.087-1.387.086-2.774.432-4.248.518-2.08 1.468-3.728 2.677-4.855 1.381-1.3 2.936-1.907 4.836-1.907 1.468 0 2.936.26 4.404.78 1.296.52 2.418 1.214 3.455 2.254.691.694 1.295 1.387 1.554 1.907.087.174.173.347.173.607 0 .174-.086.26-.346.434-.259.087-1.122.26-2.677.607-1.554.346-2.591.52-2.936.606-.864.087-1.641.26-2.504.434-1.641.26-2.678.347-3.196.347h-1.727c-.173 0-.173.346-.173 1.04.087 2.687.95 4.854 2.332 6.588.518.52 1.295 1.04 2.418 1.3 1.036.26 1.986.434 3.023.347 1.554 0 2.763-.26 3.713-.78.605-.347 1.037-.607 1.296-.867.086 0 .086-.087.172-.087.087 0 .173.087.432.26.087.087.173.087.173.174zM37.48 8.149c4.75 14.996-25.13 16.384-11.831 29.733.432-2.34 3.54-5.46 6.131-3.294 14.682 10.923 35.495 9.016 44.994 28.954 7.082 7.108 5.44 12.136 11.832 19.504-.432 1.908 1.209 3.121.518 5.028-.518 0-1.21.26-1.641-.52-1.382 1.214-1.382 3.554-.432 5.028-11.918-2.427-21.59-13.87-36.53-10.75-1.382 2.601-3.8 5.029-4.491 7.803l17.013.693L62.61 140H35.84c0-15.17 2.85-32.334-1.21-45.597-1.9-8.062 7.6-5.028 9.241-11.443.95-.694 1.209-1.647.95-2.86-13.04-8.063-28.672-16.385-32.903-32.595 0-1.214.259-2.861-1.21-3.555-3.108 5.202-7.34 9.97-9.499 15.43-3.54-3.813 1.382-7.108 1.64-10.662 6.91-14.043 11.4-29.04 15.891-43.95C21.072 1.908 23.922.694 27.29.26c4.49-1.647 8.809 4.334 10.19 7.889z"/></g><defs><clipPath id="clip0"><path fill="#fff" d="M0 0h340v140H0z"/></clipPath></defs></svg>